# xmcd
#
# Track frame offsets:
#	150
#	16424
#	32365
#	49103
#	63328
#	76555
#	94073
#	110664
#	126391
#	141080
#	158933
#	172302
#
# Disc length: 2497 seconds
#
# Revision: 2
# Processed by: cddbd v1.5.2PL0 Copyright (c) Steve Scherf et al.
# Submitted via: EZCDAudioConverter 2.4.0.1
#
DISCID=9b09bf0c
DTITLE=Leandro E Leonardo - Leandro and Leonardo
DYEAR=1989
DGENRE=Other
TTITLE0=Quem Será Essa Mulher
TTITLE1=Lágrimas Do Coração
TTITLE2=Quebra Esse Gelo
TTITLE3=Quarto Negro
TTITLE4=Paraíso
TTITLE5=É Por Você Que Canto
TTITLE6=Aqueles Olhos
TTITLE7=Entre Tapas E Beijos
TTITLE8=Teu Olhar
TTITLE9=Cai Na Real
TTITLE10=Semi-Luz
TTITLE11=Luar Do Sertão
EXTD=
EXTT0=
EXTT1=
EXTT2=
EXTT3=
EXTT4=
EXTT5=
EXTT6=
EXTT7=
EXTT8=
EXTT9=
EXTT10=
EXTT11=
PLAYORDER=
